<?xml version="1.0" encoding="utf-8"?>
<!-- Generator: Adobe Illustrator 18.1.1, SVG Export Plug-In . SVG Version: 6.00 Build 0)  -->
<svg version="1.0" id="Camada_1" xmlns="http://www.w3.org/2000/svg" xmlns:xlink="http://www.w3.org/1999/xlink" height="32px" width="96px" x="0px" y="0px"
	 viewBox="0 0 94 27" enable-background="new 0 0 94 27" xml:space="preserve">
<g>
	<path fill="#1D1D1B" d="M12.4,0.1C6.2,0.1,1.2,4.9,1.2,10.7c0,5.8,5,10.6,11.3,10.6c6.2,0,11.3-4.7,11.3-10.6
		C23.7,4.9,18.7,0.1,12.4,0.1z M12.4,17.3c-4,0-7.3-3-7.3-6.6c0-3.7,3.3-6.6,7.3-6.6c4,0,7.3,3,7.3,6.6
		C19.7,14.4,16.5,17.3,12.4,17.3z"/>
	<g>
		<path fill="#1D1D1B" d="M35.5,0.2c-6.2,0-11.2,4.7-11.3,10.5h0V27h4v-8.2c2,1.6,4.5,2.5,7.3,2.5c6.2,0,11.3-4.7,11.3-10.6
			C46.8,4.9,41.8,0.2,35.5,0.2z M35.5,17.4c-4,0-7.3-3-7.3-6.6c0-3.7,3.3-6.6,7.3-6.6s7.3,3,7.3,6.6C42.8,14.4,39.6,17.4,35.5,17.4z
			"/>
		<path fill="#1D1D1B" d="M58.7,0.2c-6.2,0-11.2,4.7-11.3,10.5h0V27h4v-8.2c2,1.6,4.5,2.5,7.3,2.5c6.2,0,11.3-4.7,11.3-10.6
			C69.9,4.9,64.9,0.2,58.7,0.2z M58.7,17.4c-4,0-7.3-3-7.3-6.6c0-3.7,3.3-6.6,7.3-6.6c4,0,7.3,3,7.3,6.6
			C66,14.4,62.7,17.4,58.7,17.4z"/>
		<path fill="#1D1D1B" d="M93,10.7c0-5.8-5.1-10.5-11.3-10.5c-6.2,0-11.3,4.7-11.3,10.6c0,5.8,5,10.6,11.3,10.6
			c2.8,0,5.3-0.9,7.3-2.5v2.1h4L93,10.7L93,10.7z M81.7,17.4c-4,0-7.3-3-7.3-6.6c0-3.7,3.3-6.6,7.3-6.6c4,0,7.3,3,7.3,6.6
			C89,14.4,85.8,17.4,81.7,17.4z"/>
	</g>
</g>
</svg>
